<svg width="491" height="127" viewBox="0 0 491 127" fill="none" xmlns="http://www.w3.org/2000/svg">
<path d="M70.304 47.255L96.91 21.6275L63.1087 2.02998C59.4273 -0.147524 54.742 -0.147524 51.0607 2.02998L45.5387 5.21248L70.304 47.255Z" fill="#22516E"/>
<path d="M99.0853 103.87L106.95 99.3475C110.631 97.17 112.974 93.15 112.974 88.9625L113.141 38.0425C113.141 33.6875 110.799 29.835 107.117 27.6575L101.428 24.475L39.18 84.105L99.0853 103.87Z" fill="#22516E"/>
<path d="M33.8253 82.2625L66.6227 50.7725L41.188 7.72498L7.05199 27.3225C3.37065 29.5 1.02798 33.52 1.02798 37.7075V71.375L33.8253 82.2625Z" fill="#22516E"/>
<path d="M35.164 87.9575L17.2593 105.043L50.8933 124.64C54.5746 126.818 59.26 126.818 62.9413 124.64L93.2286 107.22L35.164 87.9575Z" fill="#22516E"/>
<path d="M29.642 86.2825L0.860657 76.735V88.6275C0.860657 92.9825 3.20332 96.835 6.88466 99.0125L12.7413 102.362L29.642 86.2825Z" fill="#22516E"/>
<path d="M151.126 51.1075V74.39C151.126 82.5975 145.437 86.6175 138.409 86.6175C133.221 86.6175 128.871 84.44 126.361 80.755V80.42L128.034 79.08H128.201C130.377 82.2625 133.723 84.2725 138.409 84.2725C144.265 84.2725 148.449 80.9225 148.449 74.5575V70.705C146.273 73.72 142.592 75.73 138.241 75.73C130.879 75.73 125.524 70.37 125.524 63.335C125.524 56.3 130.879 50.7725 138.409 50.7725C142.927 50.7725 146.441 52.7825 148.616 55.7975V51.275H151.126V51.1075ZM148.616 63C148.616 57.305 144.433 52.95 138.409 52.95C132.385 52.95 128.201 57.305 128.201 63C128.201 68.8625 132.217 73.05 138.409 73.05C144.433 73.05 148.616 68.695 148.616 63Z" fill="#22516E"/>
<path d="M184.593 51.4425L183.756 53.4525L183.589 53.62C182.752 53.1175 181.915 52.95 180.911 52.95C176.895 52.95 173.716 56.97 173.716 62.4975V77.9075H171.039V51.1075H173.549V55.63C175.055 52.4475 177.899 50.4375 181.246 50.4375C182.417 50.4375 183.589 50.605 184.593 51.1075V51.4425Z" fill="#22516E"/>
<path d="M219.398 60.8225V77.9075H216.888V73.72C214.713 76.735 211.031 78.5775 207.015 78.5775C200.824 78.5775 196.641 75.06 196.641 70.035C196.641 64.8425 201.159 61.325 207.685 61.325C211.199 61.325 214.211 62.33 216.721 63.67V60.4875C216.721 55.965 213.374 52.95 208.521 52.95C205.175 52.95 201.995 54.29 199.485 56.4675H199.151L197.979 54.7925V54.625C200.489 52.1125 204.505 50.605 208.354 50.605C215.382 50.4375 219.398 54.4575 219.398 60.8225ZM216.888 68.1925V66.015C214.88 64.8425 211.366 63.5025 207.852 63.5025C202.832 63.5025 199.485 66.015 199.485 69.8675C199.485 73.385 202.665 75.8975 207.183 75.8975C212.035 76.065 216.888 73.2175 216.888 68.1925Z" fill="#22516E"/>
<path d="M265.917 64.5075C265.917 72.38 260.395 78.5775 252.363 78.5775C247.51 78.5775 243.829 76.4 241.486 72.8825V85.9475H238.809V51.1075H241.319V56.1325C243.661 52.615 247.51 50.4375 252.363 50.4375C260.227 50.4375 265.917 56.635 265.917 64.5075ZM263.072 64.5075C263.072 58.1425 258.721 52.7825 252.028 52.7825C245.837 52.7825 241.151 57.1375 241.151 64.5075C241.151 71.71 246.004 76.2325 252.028 76.2325C258.721 76.065 263.072 70.8725 263.072 64.5075Z" fill="#22516E"/>
<path d="M306.411 61.325V77.9075H303.734V61.4925C303.734 56.3 300.387 52.7825 295.2 52.7825C289.845 52.7825 285.997 56.4675 285.997 61.66V77.9075H283.487V41.56L285.829 41.225L286.164 41.3925V55.1275C288.005 52.1125 291.351 50.27 295.702 50.27C302.228 50.4375 306.411 54.7925 306.411 61.325Z" fill="#22516E"/>
<path d="M324.818 43.7375C324.818 42.3975 325.989 41.225 327.328 41.225C328.667 41.225 329.838 42.3975 329.838 43.7375C329.838 45.0775 328.667 46.25 327.328 46.25C325.822 46.25 324.818 45.0775 324.818 43.7375ZM325.989 51.1075H328.667V77.9075H325.989V51.1075Z" fill="#22516E"/>
<path d="M346.404 64.5075C346.404 56.635 352.261 50.4375 360.46 50.4375C365.145 50.4375 369.161 52.615 371.504 55.63V55.965L369.831 57.305H369.496C367.321 54.625 364.141 52.95 360.293 52.95C353.599 52.95 348.914 57.975 348.914 64.675C348.914 71.2075 353.432 76.2325 360.46 76.2325C363.974 76.2325 367.321 74.725 369.496 71.8775H369.831L371.504 73.2175V73.5525C369.161 76.5675 365.145 78.745 360.46 78.745C352.261 78.5775 346.404 72.38 346.404 64.5075Z" fill="#22516E"/>
<path d="M385.727 73.8875L400.62 55.63H386.229V51.1075H407.648V55.1275L392.923 73.385H408.485V77.9075H385.727V73.8875V73.8875Z" fill="#22516E"/>
<path d="M428.063 66.015C428.565 71.2075 432.413 73.8875 436.931 73.8875C439.943 73.8875 443.29 72.715 445.298 70.37H445.8L448.812 73.05V73.5525C445.967 77.07 440.947 78.5775 436.931 78.5775C429.234 78.5775 422.541 73.2175 422.541 64.5075C422.541 56.4675 428.397 50.4375 436.429 50.4375C440.278 50.4375 443.625 51.7775 445.967 54.1225C448.477 56.4675 449.983 59.985 449.983 64.005C449.983 64.675 449.983 65.345 449.816 65.8475H428.063V66.015ZM428.063 61.8275H443.792C443.457 59.8175 442.788 58.31 441.617 57.1375C440.278 55.63 438.27 54.96 435.927 54.96C431.744 54.96 428.732 57.64 428.063 61.8275Z" fill="#22516E"/>
<path d="M490.98 61.8275V78.075H485.123V62.33C485.123 58.31 482.781 55.63 478.597 55.63C474.749 55.63 471.904 58.31 471.904 62.33V78.075H466.047V51.275H471.235V54.625C473.075 52.1125 476.087 50.4375 479.936 50.4375C486.629 50.4375 490.98 55.1275 490.98 61.8275Z" fill="#22516E"/>
</svg>
