<?xml version="1.0" encoding="utf-8"?>
<svg xmlns="http://www.w3.org/2000/svg" xmlns:xlink="http://www.w3.org/1999/xlink" width="200.994" height="50" viewBox="0 0 200.994 50"><defs><linearGradient id="a" x1="0.65" y1="1.656" x2="0.309" y2="-0.718" gradientUnits="objectBoundingBox"><stop offset="0" stop-color="#b0654c"/><stop offset="0.184" stop-color="#fdbd99"/><stop offset="0.21" stop-color="#edab8a"/><stop offset="0.263" stop-color="#d38e72"/><stop offset="0.315" stop-color="#c07860"/><stop offset="0.365" stop-color="#b46c56"/><stop offset="0.413" stop-color="#b16853"/><stop offset="0.584" stop-color="#ba715a"/><stop offset="0.618" stop-color="#bd745d"/><stop offset="0.737" stop-color="#95584b"/><stop offset="0.837" stop-color="#79443e"/></linearGradient></defs><path d="M1114.907,1118.1v47.818h-6.415V1118.1Zm13.756,0h13.1q8.928,0,14.782,3.538a21.443,21.443,0,0,1,8.531,9.127,26.984,26.984,0,0,1,2.679,11.806,23.129,23.129,0,0,1-3.24,12.268,22.13,22.13,0,0,1-8.665,8.2,24.736,24.736,0,0,1-11.773,2.878h-15.41Zm14.154,41.6a20.861,20.861,0,0,0,9.457-2.083,15.418,15.418,0,0,0,6.515-6.051,20.254,20.254,0,0,0-.1-19.114,16.1,16.1,0,0,0-6.515-6.118,18.938,18.938,0,0,0-8.763-2.084h-8.334v35.45Zm67.792,8.334-10.781-28.241-11.044,28.307-18.52-49.008h3.7l15.146,41.4,9.127-24.735-6.349-16.667h3.24l15.609,41,15.277-41h3.439Zm58.532-49.075v3.108h-25.728v18.652h23.148v3.108h-23.148v18.982h26.654v3.108h-29.895v-46.958Zm37.732,27.316a10.461,10.461,0,0,1,2.612,7.143,11.456,11.456,0,0,1-2.05,6.879,12.313,12.313,0,0,1-5.423,4.233,19.1,19.1,0,0,1-7.343,1.389h-12.234v-46.958h10.384q14.286,0,14.286,11.9a12.755,12.755,0,0,1-1.819,6.846,10.688,10.688,0,0,1-5.258,4.332A14.29,14.29,0,0,1,1306.873,1146.277Zm-21.2-5.358h8.665q4.762,0,7.11-2.579a9.829,9.829,0,0,0,2.347-6.878q0-4.827-2.843-7.11t-8-2.282h-7.276Zm17.2,19.577a8.127,8.127,0,0,0,3.307-6.944,8.038,8.038,0,0,0-3.539-7.143,14.514,14.514,0,0,0-8.3-2.382h-8.665v18.916h8.862A13.637,13.637,0,0,0,1302.872,1160.5Z" transform="translate(-1108.492 -1118.102)" fill="url(#a)"/></svg>
