<svg width="495" height="109" viewBox="0 0 495 109" fill="none" xmlns="http://www.w3.org/2000/svg">
<path d="M297 77.25H229V96H297V77.25Z" fill="#4D91BB"/>
<path d="M244.111 77.25H281.889L280 34.125H246L244.111 77.25Z" fill="#4D91BB"/>
<path d="M291.333 17.25H234.667V34.125H291.333V17.25Z" fill="#4D91BB"/>
<path d="M246 6H234.667V17.25H246V6Z" fill="#4D91BB"/>
<path d="M268.667 6H257.333V17.25H268.667V6Z" fill="#4D91BB"/>
<path d="M291.333 6H280V17.25H291.333V6Z" fill="#4D91BB"/>
<path d="M280 34.125H246L280.208 38.8125L280 34.125Z" fill="#2175AA"/>
<path d="M244.111 77.25H281.889L281.804 75.3188L244.111 77.25Z" fill="#2175AA"/>
<path d="M12.56 82.93C12.08 83.77 11.6 84.19 11.12 84.19C10.7 84.19 10.31 83.86 9.95 83.2C9.65 82.6 9.5 81.94 9.5 81.22C9.5 80.68 9.59 80.23 9.77 79.87C10.61 78.01 11.54 76.06 12.56 74.02C13.64 71.92 14.78 69.85 15.98 67.81C16.58 65.53 17 63.19 17.24 60.79C17.54 58.33 17.69 55.9 17.69 53.5C17.69 49.48 17.24 45.46 16.34 41.44C15.44 37.36 13.94 33.49 11.84 29.83C11.48 29.11 10.88 28.36 10.04 27.58C9.26 26.8 8.36 26.14 7.34 25.6C6.38 25 5.45 24.7 4.55 24.7C4.13 24.7 3.65 24.88 3.11 25.24C2.57 25.54 2.12 25.93 1.76 26.41C1.46 26.71 1.25 26.86 1.13 26.86C0.77 26.86 0.59 26.62 0.59 26.14C0.59 26.02 0.65 25.78 0.77 25.42C2.27 23.38 3.92 22.36 5.72 22.36C7.46 22.36 9.08 22.99 10.58 24.25C12.14 25.51 13.28 26.74 14 27.94C15.98 31.12 17.39 34.81 18.23 39.01C19.13 43.21 19.58 47.62 19.58 52.24C19.58 53.98 19.52 55.75 19.4 57.55C19.28 59.35 19.1 61.12 18.86 62.86C19.64 61.18 20.66 59.2 21.92 56.92C23.18 54.58 24.56 52.18 26.06 49.72C27.56 47.2 29.12 44.77 30.74 42.43C32.36 40.09 33.95 38.05 35.51 36.31C37.13 34.51 38.6 33.22 39.92 32.44H39.74C41.3 31.48 42.83 31 44.33 31C45.59 31 46.64 31.42 47.48 32.26C48.32 33.04 48.74 34.3 48.74 36.04C48.74 36.28 48.74 36.52 48.74 36.76C48.74 37 48.71 37.27 48.65 37.57C48.53 38.83 48.08 40.48 47.3 42.52C46.52 44.5 45.59 46.66 44.51 49C43.49 51.34 42.47 53.65 41.45 55.93C40.01 59.05 38.69 61.93 37.49 64.57C36.35 67.21 35.78 69.01 35.78 69.97C35.78 70.39 35.93 70.6 36.23 70.6C37.55 70.6 39.05 70 40.73 68.8C42.47 67.54 44.24 65.98 46.04 64.12C47.9 62.2 49.7 60.19 51.44 58.09C53.18 55.99 54.77 54.04 56.21 52.24L58.1 49.9C58.4 49.54 58.94 49.03 59.72 48.37C60.56 47.65 61.28 47.29 61.88 47.29C62.48 47.29 62.78 47.71 62.78 48.55C62.78 48.97 62.51 49.78 61.97 50.98C61.49 52.12 60.86 53.5 60.08 55.12C59.66 56.02 59.18 57.25 58.64 58.81C58.1 60.37 57.62 62.08 57.2 63.94C56.84 65.74 56.66 67.51 56.66 69.25C56.66 71.47 57.11 73.42 58.01 75.1C58.97 76.72 60.71 77.53 63.23 77.53C64.61 77.53 65.78 77.2 66.74 76.54C67.7 75.94 68.48 75.25 69.08 74.47C69.5 73.99 69.77 73.6 69.89 73.3C70.19 72.64 70.43 72.31 70.61 72.31C70.97 72.31 71.15 72.55 71.15 73.03C71.15 73.99 70.7 74.95 69.8 75.91C68.96 76.81 67.91 77.56 66.65 78.16C65.39 78.82 64.19 79.15 63.05 79.15C60.59 79.15 58.67 78.64 57.29 77.62C55.91 76.66 54.95 75.37 54.41 73.75C53.87 72.07 53.6 70.24 53.6 68.26C53.6 66.28 53.81 64.24 54.23 62.14C54.71 59.98 55.16 58.09 55.58 56.47C55.16 56.89 54.68 57.4 54.14 58C53.66 58.6 53.09 59.23 52.43 59.89C51.17 61.27 49.79 62.77 48.29 64.39C46.85 65.95 45.38 67.42 43.88 68.8C42.38 70.18 40.94 71.32 39.56 72.22C38.18 73.06 36.95 73.48 35.87 73.48C35.45 73.48 34.82 73.18 33.98 72.58C33.14 71.92 32.75 71.29 32.81 70.69C33.05 68.95 33.74 66.79 34.88 64.21C36.02 61.57 37.25 58.84 38.57 56.02C40.31 52.48 41.9 48.97 43.34 45.49C44.78 42.01 45.5 39.04 45.5 36.58C45.5 35.5 45.29 34.78 44.87 34.42C44.51 34.06 44.06 33.88 43.52 33.88C41.9 33.88 40.22 34.57 38.48 35.95C36.74 37.33 35.03 39.13 33.35 41.35C31.67 43.57 30.02 46.03 28.4 48.73C26.84 51.37 25.37 53.98 23.99 56.56C22.61 59.14 21.41 61.45 20.39 63.49C19.79 64.63 19.25 65.68 18.77 66.64C18.29 67.6 17.9 68.35 17.6 68.89V68.8C16.94 71.74 16.22 74.32 15.44 76.54C14.66 78.76 13.7 80.89 12.56 82.93ZM78.2621 76.99C77.1221 77.11 76.1921 76.87 75.4721 76.27C74.8121 75.67 74.4821 74.74 74.4821 73.48C74.4821 72.16 74.7821 70.63 75.3821 68.89C75.9821 67.15 76.7021 65.47 77.5421 63.85C78.3821 62.23 79.1321 60.91 79.7921 59.89C79.7321 59.83 79.6121 59.65 79.4321 59.35C79.3121 58.99 79.2521 58.69 79.2521 58.45C79.2521 58.21 79.3421 58.09 79.5221 58.09C79.7021 58.09 80.0321 58.24 80.5121 58.54C80.9321 57.88 81.4421 57.1 82.0421 56.2C82.7021 55.3 83.3921 54.52 84.1121 53.86C84.8921 53.14 85.7021 52.78 86.5421 52.78C87.4421 52.78 88.0121 53.23 88.2521 54.13C88.5521 55.03 88.7021 55.78 88.7021 56.38C88.7021 57.58 88.2521 58.57 87.3521 59.35C86.4521 60.13 85.3121 60.58 83.9321 60.7C83.3921 60.7 82.8221 60.64 82.2221 60.52C81.6821 60.34 81.3521 60.19 81.2321 60.07C80.8121 60.91 80.2121 62.14 79.4321 63.76C78.7121 65.38 78.0521 67.03 77.4521 68.71C76.8521 70.39 76.5521 71.8 76.5521 72.94C76.5521 73.6 76.7321 74.17 77.0921 74.65C77.5121 75.13 78.1121 75.34 78.8921 75.28C80.0921 75.16 81.3821 74.65 82.7621 73.75C84.2021 72.79 85.6121 71.65 86.9921 70.33C88.3721 68.95 89.5121 67.6 90.4121 66.28C90.5321 66.1 90.6521 66.01 90.7721 66.01C90.8921 66.01 90.9821 66.1 91.0421 66.28C91.1021 66.46 91.1021 66.61 91.0421 66.73C90.2021 68.05 89.0321 69.49 87.5321 71.05C86.0921 72.61 84.5321 73.96 82.8521 75.1C81.2321 76.24 79.7021 76.87 78.2621 76.99ZM83.6621 59.62C84.5021 59.5 85.1021 59.14 85.4621 58.54C85.8221 57.94 85.9421 57.22 85.8221 56.38C85.8221 56.14 85.7621 55.9 85.6421 55.66C85.5821 55.36 85.4021 55.21 85.1021 55.21C84.5621 55.27 83.9321 55.84 83.2121 56.92C82.5521 57.94 82.0721 58.69 81.7721 59.17C81.8921 59.23 82.1921 59.32 82.6721 59.44C83.2121 59.56 83.5421 59.62 83.6621 59.62ZM97.4792 79.69C98.4992 79.69 99.4892 79.36 100.449 78.7C101.409 78.1 102.189 77.5 102.789 76.9C102.969 76.66 103.119 76.54 103.239 76.54C103.359 76.54 103.419 76.63 103.419 76.81C103.419 77.11 103.299 77.38 103.059 77.62C102.279 78.58 101.289 79.36 100.089 79.96C98.9492 80.62 97.8092 80.95 96.6692 80.95C95.6492 80.95 94.7792 80.59 94.0592 79.87C93.3992 79.21 93.0692 78.13 93.0692 76.63C93.0692 74.71 93.5192 72.82 94.4192 70.96C95.3792 69.1 96.5192 67.27 97.8392 65.47C99.1592 63.67 100.389 61.96 101.529 60.34C102.009 59.56 102.249 58.93 102.249 58.45C102.249 57.61 101.709 56.92 100.629 56.38C100.149 56.14 99.5792 55.78 98.9192 55.3C98.2592 54.76 97.8392 54.25 97.6592 53.77C96.8792 55.93 95.8292 58.33 94.5092 60.97C93.2492 63.61 91.5692 66.22 89.4692 68.8C89.2292 69.16 88.9892 69.34 88.7492 69.34C88.6292 69.34 88.5692 69.25 88.5692 69.07C88.5692 68.83 88.6892 68.56 88.9292 68.26C89.5892 67.48 90.3692 66.37 91.2692 64.93C92.1692 63.43 93.0392 61.81 93.8792 60.07C94.7792 58.27 95.4992 56.53 96.0392 54.85C96.6392 53.17 96.9392 51.7 96.9392 50.44C97.0592 49.78 97.4192 49.45 98.0192 49.45C98.4992 49.45 98.7392 49.72 98.7392 50.26C98.6792 50.44 98.6492 50.71 98.6492 51.07C98.6492 51.61 98.7692 52.15 99.0092 52.69C99.2492 53.23 99.6092 53.65 100.089 53.95C100.569 54.31 101.259 54.64 102.159 54.94C103.119 55.18 103.959 55.48 104.679 55.84C105.459 56.2 105.849 56.77 105.849 57.55C105.849 57.91 105.579 58.54 105.039 59.44C104.499 60.28 103.839 61.21 103.059 62.23C102.339 63.25 101.619 64.21 100.899 65.11C100.239 65.95 99.7592 66.55 99.4592 66.91C98.3192 68.41 97.2092 70 96.1292 71.68C95.1092 73.3 94.5992 74.98 94.5992 76.72C94.5992 77.74 94.8692 78.49 95.4092 78.97C96.0092 79.45 96.6992 79.69 97.4792 79.69ZM114.346 51.61C114.106 51.61 113.836 51.55 113.536 51.43C113.296 51.31 113.176 51.07 113.176 50.71C113.176 50.05 113.566 49.54 114.346 49.18C115.186 48.76 115.876 48.55 116.416 48.55C116.716 48.55 116.986 48.61 117.226 48.73C117.526 48.85 117.676 49.06 117.676 49.36C117.676 50.02 117.256 50.56 116.416 50.98C115.576 51.4 114.886 51.61 114.346 51.61ZM119.746 71.86C118.846 72.94 117.916 73.87 116.956 74.65C116.056 75.37 115.186 75.73 114.346 75.73C113.566 75.73 112.876 75.37 112.276 74.65C111.676 73.87 111.166 72.61 110.746 70.87C110.686 70.33 110.596 69.55 110.476 68.53C110.416 67.51 110.386 66.46 110.386 65.38C110.386 64.24 110.416 63.16 110.476 62.14C110.596 61.06 110.686 60.22 110.746 59.62C110.866 59.14 111.106 58.6 111.466 58C111.886 57.4 112.396 57.1 112.996 57.1C113.536 57.1 113.806 57.4 113.806 58C113.806 58.06 113.776 58.12 113.716 58.18C113.716 58.24 113.716 58.3 113.716 58.36C113.476 59.74 113.296 61.12 113.176 62.5C113.056 63.82 112.996 65.17 112.996 66.55C112.996 68.95 113.176 70.69 113.536 71.77C113.956 72.85 114.526 73.39 115.246 73.39C115.786 73.39 116.416 73.15 117.136 72.67C117.856 72.13 118.666 71.44 119.566 70.6C120.346 69.88 121.096 69.07 121.816 68.17C122.536 67.27 123.316 66.13 124.156 64.75C124.276 64.45 124.456 64.3 124.696 64.3C125.116 64.3 125.176 64.6 124.876 65.2C124.276 66.16 123.526 67.21 122.626 68.35C121.726 69.49 120.766 70.66 119.746 71.86ZM152.492 83.2C151.712 83.44 150.902 83.56 150.062 83.56C148.142 83.56 146.432 82.9 144.932 81.58C143.492 80.32 142.232 78.7 141.152 76.72C140.072 74.8 139.202 72.85 138.542 70.87C137.882 68.89 137.402 67.18 137.102 65.74C135.722 68.38 134.192 70.57 132.512 72.31C131.312 73.63 130.232 74.5 129.272 74.92C128.372 75.28 127.592 75.37 126.932 75.19C125.312 74.71 124.172 73.93 123.512 72.85C122.912 71.83 122.612 70.54 122.612 68.98C122.612 67.3 122.882 65.62 123.422 63.94C124.022 62.26 124.622 60.94 125.222 59.98C127.502 56.2 130.712 53.59 134.852 52.15C134.612 50.17 134.432 48.19 134.312 46.21C134.252 44.23 134.222 42.31 134.222 40.45C134.222 38.11 134.282 35.86 134.402 33.7C134.582 31.54 134.822 29.53 135.122 27.67C135.662 24.67 136.412 22.51 137.372 21.19C138.332 19.81 139.322 19.12 140.342 19.12C141.542 19.12 142.652 19.96 143.672 21.64C144.692 23.32 145.292 25.57 145.472 28.39C145.532 28.93 145.562 29.47 145.562 30.01C145.562 30.49 145.562 31 145.562 31.54C145.562 34.12 145.352 36.7 144.932 39.28C144.512 41.8 144.062 44.38 143.582 47.02C143.522 47.74 143.372 48.49 143.132 49.27C142.952 49.99 142.772 50.74 142.592 51.52C142.952 51.52 143.282 51.55 143.582 51.61C143.942 51.67 144.302 51.73 144.662 51.79C145.082 51.97 145.292 52.21 145.292 52.51C145.292 52.69 145.172 52.84 144.932 52.96C144.752 53.08 144.482 53.11 144.122 53.05C143.822 52.93 143.492 52.87 143.132 52.87C142.832 52.81 142.532 52.78 142.232 52.78C141.692 54.64 141.062 56.5 140.342 58.36C139.682 60.22 138.962 62.05 138.182 63.85C138.482 65.17 138.902 66.88 139.442 68.98C140.042 71.02 140.822 73.06 141.782 75.1C142.742 77.14 143.912 78.85 145.292 80.23C146.732 81.67 148.442 82.39 150.422 82.39C151.142 82.39 152.012 82.24 153.032 81.94H153.212C153.452 81.94 153.572 82.06 153.572 82.3C153.572 82.72 153.212 83.02 152.492 83.2ZM136.292 51.88C136.952 51.7 137.642 51.55 138.362 51.43C139.142 51.31 139.952 51.28 140.792 51.34C141.632 48.22 142.232 45.1 142.592 41.98C143.012 38.86 143.222 35.86 143.222 32.98C143.222 32.14 143.222 31.3 143.222 30.46C143.222 29.62 143.162 28.81 143.042 28.03C142.862 25.81 142.472 24.13 141.872 22.99C141.332 21.79 140.732 21.19 140.072 21.19C138.632 21.19 137.552 23.2 136.832 27.22C136.472 29.2 136.202 31.45 136.022 33.97C135.902 36.43 135.842 38.98 135.842 41.62C135.842 43.42 135.872 45.19 135.932 46.93C136.052 48.67 136.172 50.32 136.292 51.88ZM137.552 61.06C138.152 59.68 138.662 58.3 139.082 56.92C139.562 55.54 140.012 54.16 140.432 52.78C139.172 52.96 137.852 53.32 136.472 53.86C136.592 55.06 136.742 56.26 136.922 57.46C137.102 58.66 137.312 59.86 137.552 61.06ZM127.022 74.38C127.742 74.62 128.852 74.05 130.352 72.67C131.252 71.89 132.392 70.48 133.772 68.44C134.252 67.6 134.732 66.76 135.212 65.92C135.692 65.02 136.142 64.12 136.562 63.22C136.322 61.78 136.052 60.34 135.752 58.9C135.452 57.46 135.212 55.93 135.032 54.31C132.392 55.63 130.142 57.61 128.282 60.25C127.922 60.85 127.442 61.75 126.842 62.95C126.302 64.15 125.792 65.44 125.312 66.82C124.892 68.2 124.682 69.49 124.682 70.69C124.682 71.35 124.772 71.95 124.952 72.49C125.252 73.51 125.942 74.14 127.022 74.38ZM154.6 51.61C154.36 51.61 154.09 51.55 153.79 51.43C153.55 51.31 153.43 51.07 153.43 50.71C153.43 50.05 153.82 49.54 154.6 49.18C155.44 48.76 156.13 48.55 156.67 48.55C156.97 48.55 157.24 48.61 157.48 48.73C157.78 48.85 157.93 49.06 157.93 49.36C157.93 50.02 157.51 50.56 156.67 50.98C155.83 51.4 155.14 51.61 154.6 51.61ZM160 71.86C159.1 72.94 158.17 73.87 157.21 74.65C156.31 75.37 155.44 75.73 154.6 75.73C153.82 75.73 153.13 75.37 152.53 74.65C151.93 73.87 151.42 72.61 151 70.87C150.94 70.33 150.85 69.55 150.73 68.53C150.67 67.51 150.64 66.46 150.64 65.38C150.64 64.24 150.67 63.16 150.73 62.14C150.85 61.06 150.94 60.22 151 59.62C151.12 59.14 151.36 58.6 151.72 58C152.14 57.4 152.65 57.1 153.25 57.1C153.79 57.1 154.06 57.4 154.06 58C154.06 58.06 154.03 58.12 153.97 58.18C153.97 58.24 153.97 58.3 153.97 58.36C153.73 59.74 153.55 61.12 153.43 62.5C153.31 63.82 153.25 65.17 153.25 66.55C153.25 68.95 153.43 70.69 153.79 71.77C154.21 72.85 154.78 73.39 155.5 73.39C156.04 73.39 156.67 73.15 157.39 72.67C158.11 72.13 158.92 71.44 159.82 70.6C160.6 69.88 161.35 69.07 162.07 68.17C162.79 67.27 163.57 66.13 164.41 64.75C164.53 64.45 164.71 64.3 164.95 64.3C165.37 64.3 165.43 64.6 165.13 65.2C164.53 66.16 163.78 67.21 162.88 68.35C161.98 69.49 161.02 70.66 160 71.86ZM213.176 85.81C211.616 86.59 210.176 86.98 208.856 86.98C207.236 86.98 205.886 86.53 204.806 85.63C203.726 84.79 202.856 83.77 202.196 82.57C201.596 81.43 201.146 80.44 200.846 79.6C200.006 76.6 199.586 73.18 199.586 69.34C199.586 65.32 200.006 61.39 200.846 57.55C200.426 57.97 199.916 58.69 199.316 59.71C198.716 60.67 198.146 61.66 197.606 62.68C197.126 63.64 196.736 64.39 196.436 64.93C195.476 66.79 194.606 68.62 193.826 70.42C193.046 72.22 192.596 73.3 192.476 73.66C192.416 74.02 192.356 74.44 192.296 74.92C192.236 75.34 191.936 75.55 191.396 75.55H191.216C190.676 75.55 190.256 75.34 189.956 74.92C189.716 74.44 189.626 73.93 189.686 73.39C189.746 73.09 189.776 72.79 189.776 72.49C189.836 72.13 189.866 71.74 189.866 71.32C189.866 69.94 189.746 68.47 189.506 66.91C189.266 65.29 188.996 63.91 188.696 62.77C188.516 64.39 187.946 66.07 186.986 67.81C186.086 69.49 185.216 70.84 184.376 71.86C183.476 72.88 182.546 73.78 181.586 74.56C180.626 75.28 179.726 75.64 178.886 75.64C178.166 75.64 177.476 75.28 176.816 74.56C176.216 73.84 175.736 72.61 175.376 70.87C175.256 70.21 175.136 69.22 175.016 67.9C174.956 66.58 174.956 65.26 175.016 63.94C174.656 64.78 174.086 65.95 173.306 67.45C172.526 68.95 171.656 70.48 170.696 72.04C169.736 73.54 168.716 74.83 167.636 75.91C166.616 76.93 165.596 77.44 164.576 77.44C163.796 77.44 163.196 77.11 162.776 76.45C162.416 75.79 162.206 75.04 162.146 74.2C162.026 73.36 161.996 72.7 162.056 72.22C162.416 69.52 163.346 66.79 164.846 64.03C166.346 61.27 168.206 58.81 170.426 56.65C172.706 54.49 175.106 52.96 177.626 52.06C178.106 51.88 178.526 51.76 178.886 51.7C179.306 51.64 179.696 51.61 180.056 51.61C180.896 51.61 181.586 51.82 182.126 52.24C182.666 52.6 182.936 53.11 182.936 53.77C182.936 54.37 182.666 55.09 182.126 55.93L181.406 57.1C181.346 57.22 181.256 57.28 181.136 57.28C181.016 57.28 180.926 57.22 180.866 57.1C180.806 56.92 180.836 56.74 180.956 56.56L181.586 55.48C181.886 54.88 182.036 54.43 182.036 54.13C182.036 53.71 181.856 53.41 181.496 53.23C181.196 53.05 180.806 52.96 180.326 52.96C179.786 52.96 179.276 53.05 178.796 53.23C177.536 53.65 176.426 54.19 175.466 54.85C174.566 55.51 173.666 56.35 172.766 57.37C171.686 58.57 170.516 60.07 169.256 61.87C168.056 63.67 166.976 65.5 166.016 67.36C165.056 69.16 164.486 70.81 164.306 72.31C164.186 72.79 164.126 73.42 164.126 74.2C164.126 74.74 164.186 75.28 164.306 75.82C164.486 76.3 164.786 76.54 165.206 76.54C165.746 76.54 166.256 76.27 166.736 75.73C167.276 75.19 167.666 74.74 167.906 74.38C168.566 73.42 169.376 72.1 170.336 70.42C171.296 68.74 172.226 67 173.126 65.2C174.026 63.4 174.716 61.87 175.196 60.61C175.256 60.43 175.286 60.25 175.286 60.07C175.286 59.89 175.316 59.77 175.376 59.71C175.496 59.17 175.736 58.6 176.096 58C176.516 57.4 177.026 57.1 177.626 57.1C178.106 57.1 178.346 57.4 178.346 58V58.36C178.106 59.68 177.926 61.03 177.806 62.41C177.686 63.79 177.626 65.17 177.626 66.55C177.626 68.95 177.806 70.69 178.166 71.77C178.586 72.85 179.156 73.39 179.876 73.39C180.416 73.39 181.046 73.15 181.766 72.67C182.486 72.13 183.296 71.44 184.196 70.6C184.676 70.12 185.216 69.34 185.816 68.26C186.476 67.12 187.016 65.89 187.436 64.57C187.916 63.19 188.096 61.9 187.976 60.7C187.676 60.1 187.526 59.62 187.526 59.26C187.526 59.02 187.616 58.9 187.796 58.9C188.216 58.9 188.666 59.2 189.146 59.8C189.566 60.22 190.016 61.12 190.496 62.5C190.976 63.82 191.366 65.32 191.666 67C191.966 68.62 192.026 70.18 191.846 71.68C192.266 71.02 192.836 70 193.556 68.62C194.276 67.24 195.056 65.65 195.896 63.85C196.676 62.29 197.456 60.67 198.236 58.99C199.076 57.31 199.946 55.66 200.846 54.04C201.326 53.26 201.866 52.66 202.466 52.24C203.006 51.88 203.486 51.7 203.906 51.7C204.446 51.7 204.716 52 204.716 52.6C204.716 52.66 204.686 52.78 204.626 52.96C204.626 53.08 204.596 53.23 204.536 53.41C203.816 55.63 203.186 58.33 202.646 61.51C202.106 64.63 201.836 67.72 201.836 70.78C201.836 72.58 201.956 74.29 202.196 75.91C202.436 77.53 202.796 78.97 203.276 80.23C203.996 82.03 205.016 83.41 206.336 84.37C207.716 85.39 209.066 85.9 210.386 85.9C211.226 85.9 212.006 85.69 212.726 85.27C213.446 84.85 214.016 84.19 214.436 83.29C214.556 83.17 214.676 83.11 214.796 83.11C215.036 83.11 215.156 83.26 215.156 83.56C215.156 83.8 214.946 84.22 214.526 84.82C214.226 85.18 213.776 85.51 213.176 85.81Z" fill="black"/>
<path d="M333.81 80.42C330.93 80.42 327.93 80 324.81 79.16C321.75 78.32 318.99 76.85 316.53 74.75C314.13 72.59 312.48 69.59 311.58 65.75C311.16 64.07 310.95 62.3 310.95 60.44C310.95 56.18 311.97 52.22 314.01 48.56C316.11 44.9 318.87 41.69 322.29 38.93C325.77 36.17 329.61 34.04 333.81 32.54C338.07 30.98 342.33 30.2 346.59 30.2C347.79 30.2 348.93 30.29 350.01 30.47C351.09 30.65 352.2 30.89 353.34 31.19C353.82 31.25 354.36 31.43 354.96 31.73L355.23 31.28L355.41 31.01C355.71 30.65 356.13 30.47 356.67 30.47C357.09 30.47 357.45 30.59 357.75 30.83C358.05 31.01 358.14 31.25 358.02 31.55C357.66 32.45 357.27 33.29 356.85 34.07C356.43 34.79 356.01 35.48 355.59 36.14C354.81 37.46 354.06 38.84 353.34 40.28C352.62 41.66 352.29 43.07 352.35 44.51C352.35 44.57 352.26 44.57 352.08 44.51C351.9 44.45 351.75 44.39 351.63 44.33C351.69 42.41 351.93 40.49 352.35 38.57C352.83 36.65 353.46 34.85 354.24 33.17L353.16 32.63C353.1 32.63 353.04 32.63 352.98 32.63C352.98 32.57 352.95 32.54 352.89 32.54C350.73 31.76 348.36 31.37 345.78 31.37C342 31.37 338.25 32.15 334.53 33.71C330.81 35.27 327.39 37.43 324.27 40.19C321.21 42.89 318.75 45.98 316.89 49.46C315.09 52.94 314.19 56.6 314.19 60.44C314.19 61.22 314.22 62.03 314.28 62.87C314.34 63.65 314.49 64.46 314.73 65.3C315.27 67.7 316.26 69.74 317.7 71.42C319.2 73.1 320.91 74.48 322.83 75.56C324.81 76.58 326.85 77.3 328.95 77.72C331.05 78.2 333.03 78.44 334.89 78.44C337.41 78.44 340.02 78.14 342.72 77.54C345.48 77 348.12 76.19 350.64 75.11C353.16 73.97 355.35 72.62 357.21 71.06C357.51 70.82 357.81 70.7 358.11 70.7C358.65 70.7 358.92 70.97 358.92 71.51C358.92 71.81 358.8 72.05 358.56 72.23C356.46 73.91 354 75.35 351.18 76.55C348.42 77.75 345.51 78.68 342.45 79.34C339.45 80.06 336.57 80.42 333.81 80.42ZM364.203 80.33C363.903 80.45 363.753 80.36 363.753 80.06C363.333 78.74 363.033 77.36 362.853 75.92C362.673 74.42 362.583 72.86 362.583 71.24C362.583 69.44 362.673 67.61 362.853 65.75C363.033 63.89 363.243 62.06 363.483 60.26C363.963 57.2 364.503 54.14 365.103 51.08C365.703 48.02 366.393 44.99 367.173 41.99C367.293 41.51 367.503 40.79 367.803 39.83C368.163 38.87 368.553 37.85 368.973 36.77C369.453 35.69 369.933 34.76 370.413 33.98C370.893 33.14 371.343 32.66 371.763 32.54C371.823 32.48 371.913 32.45 372.033 32.45C372.153 32.45 372.273 32.54 372.393 32.72C372.513 32.9 372.603 33.05 372.663 33.17C372.723 33.35 372.753 33.62 372.753 33.98C372.753 34.64 372.603 35.27 372.303 35.87C371.823 37.01 371.343 38.12 370.863 39.2C370.443 40.28 370.023 41.42 369.603 42.62C368.883 44.66 368.103 47.27 367.263 50.45C366.423 53.57 365.673 56.9 365.013 60.44C364.413 63.92 364.023 67.22 363.843 70.34C364.503 68.24 365.403 66.17 366.543 64.13C367.743 62.03 368.943 60.32 370.143 59C370.503 58.64 370.923 58.37 371.403 58.19C371.583 58.13 371.793 58.1 372.033 58.1C372.633 58.1 373.023 58.4 373.203 59C373.383 59.48 373.653 60.41 374.013 61.79C374.433 63.11 374.913 64.52 375.453 66.02C375.993 67.52 376.563 68.81 377.163 69.89C377.643 70.73 378.303 71.15 379.143 71.15C379.863 71.15 380.553 70.91 381.213 70.43C381.933 69.89 382.473 69.32 382.833 68.72C383.013 68.42 383.193 68.27 383.373 68.27C383.553 68.27 383.643 68.39 383.643 68.63C383.643 68.75 383.553 68.96 383.373 69.26C382.893 69.92 382.263 70.61 381.483 71.33C380.763 72.05 380.133 72.47 379.593 72.59C379.473 72.65 379.323 72.68 379.143 72.68C378.963 72.68 378.813 72.68 378.693 72.68C378.093 72.68 377.523 72.56 376.983 72.32C376.503 72.02 376.053 71.57 375.633 70.97C374.793 69.71 374.043 68.3 373.383 66.74C372.783 65.12 372.303 63.92 371.943 63.14C371.343 61.94 370.803 61.34 370.323 61.34C369.903 61.34 369.423 61.67 368.883 62.33C367.563 64.01 366.483 66.17 365.643 68.81C364.803 71.39 364.233 73.76 363.933 75.92C363.993 76.64 364.083 77.3 364.203 77.9C364.323 78.56 364.473 79.19 364.653 79.79C364.653 80.03 364.503 80.21 364.203 80.33ZM385.969 76.19C385.189 76.19 384.589 75.86 384.169 75.2C383.809 74.54 383.569 73.79 383.449 72.95C383.389 72.11 383.389 71.45 383.449 70.97C383.809 68.21 384.739 65.45 386.239 62.69C387.739 59.93 389.599 57.47 391.819 55.31C394.099 53.15 396.499 51.65 399.019 50.81C399.499 50.63 399.919 50.51 400.279 50.45C400.699 50.39 401.089 50.36 401.449 50.36C403.309 50.36 404.239 51.08 404.239 52.52C404.239 53.24 403.999 53.96 403.519 54.68L402.799 55.85C402.739 56.03 402.649 56.12 402.529 56.12C402.409 56.12 402.319 56.03 402.259 55.85C402.199 55.67 402.229 55.49 402.349 55.31C402.469 55.13 402.559 54.95 402.619 54.77C402.739 54.59 402.859 54.41 402.979 54.23C403.279 53.63 403.429 53.18 403.429 52.88C403.429 52.46 403.249 52.19 402.889 52.07C402.589 51.89 402.199 51.8 401.719 51.8C401.479 51.8 401.209 51.83 400.909 51.89C400.669 51.89 400.429 51.92 400.189 51.98C398.929 52.4 397.819 52.94 396.859 53.6C395.959 54.26 395.059 55.1 394.159 56.12C393.079 57.26 391.909 58.76 390.649 60.62C389.389 62.42 388.279 64.25 387.319 66.11C386.419 67.97 385.879 69.62 385.699 71.06C385.579 71.42 385.519 71.99 385.519 72.77C385.519 73.31 385.579 73.88 385.699 74.48C385.879 75.02 386.179 75.29 386.599 75.29C387.139 75.29 387.649 75.02 388.129 74.48C388.609 73.94 388.999 73.49 389.299 73.13C390.319 71.69 391.459 69.89 392.719 67.73C393.979 65.57 394.969 63.53 395.689 61.61L395.869 60.62C395.989 60.14 396.229 59.6 396.589 59C396.949 58.4 397.459 58.1 398.119 58.1C398.659 58.1 398.929 58.4 398.929 59C398.929 59.06 398.899 59.12 398.839 59.18C398.839 59.24 398.839 59.3 398.839 59.36C398.599 60.74 398.419 62.12 398.299 63.5C398.179 64.82 398.119 66.17 398.119 67.55C398.119 70.01 398.359 71.84 398.839 73.04C399.319 74.18 399.919 74.75 400.639 74.75C401.359 74.75 402.139 74.36 402.979 73.58C403.879 72.8 404.719 71.93 405.499 70.97C406.339 69.95 406.969 69.17 407.389 68.63L409.369 65.93C409.549 65.69 409.699 65.57 409.819 65.57C409.939 65.57 409.999 65.66 409.999 65.84C409.999 66.14 409.939 66.38 409.819 66.56C409.219 67.58 408.499 68.66 407.659 69.8C406.879 70.88 405.979 72.02 404.959 73.22C404.179 74.18 403.309 74.99 402.349 75.65C401.389 76.31 400.489 76.64 399.649 76.64C398.869 76.64 398.149 76.28 397.489 75.56C396.829 74.84 396.289 73.61 395.869 71.87C395.749 71.21 395.629 70.25 395.509 68.99C395.449 67.67 395.449 66.32 395.509 64.94C395.149 65.84 394.639 66.92 393.979 68.18C393.319 69.44 392.539 70.7 391.639 71.96C390.799 73.16 389.869 74.18 388.849 75.02C387.889 75.8 386.929 76.19 385.969 76.19ZM411.568 77.9C411.028 77.9 410.578 77.69 410.218 77.27C409.918 76.85 409.738 76.43 409.678 76.01C409.678 75.53 409.738 75.2 409.858 75.02C410.218 73.88 410.488 72.5 410.668 70.88C410.848 69.26 410.938 67.61 410.938 65.93C410.938 64.91 410.908 63.95 410.848 63.05C410.788 62.15 410.698 61.31 410.578 60.53C410.458 59.27 410.188 57.89 409.768 56.39C409.348 54.89 408.478 53.72 407.158 52.88C407.038 52.88 406.978 52.79 406.978 52.61C406.918 52.43 406.948 52.34 407.068 52.34C407.308 52.34 407.488 52.4 407.608 52.52C408.988 53.3 410.098 54.56 410.938 56.3C411.838 58.04 412.498 59.96 412.918 62.06C413.338 64.1 413.548 66.05 413.548 67.91C413.548 68.45 413.518 68.96 413.458 69.44C413.458 69.92 413.428 70.4 413.368 70.88C414.088 69.26 414.898 67.52 415.798 65.66C416.758 63.8 417.718 62.09 418.678 60.53C419.698 58.91 420.628 57.77 421.468 57.11C421.948 56.69 422.488 56.36 423.088 56.12C423.688 55.82 424.288 55.67 424.888 55.67C425.728 55.67 426.298 55.94 426.598 56.48C426.958 57.02 427.138 57.71 427.138 58.55C427.138 59.45 426.778 60.62 426.058 62.06C425.338 63.5 424.528 64.97 423.628 66.47C422.788 67.97 422.098 69.23 421.558 70.25C421.018 71.21 420.928 71.69 421.288 71.69C422.248 71.69 423.268 71.24 424.348 70.34C425.428 69.38 426.478 68.3 427.498 67.1C428.578 65.84 429.508 64.73 430.288 63.77C430.588 63.41 430.978 63.05 431.458 62.69C431.938 62.33 432.448 62.15 432.988 62.15C433.468 62.15 433.708 62.39 433.708 62.87C433.708 63.05 433.648 63.23 433.528 63.41C433.468 63.53 433.408 63.65 433.348 63.77C432.808 65.15 432.358 66.56 431.998 68C431.698 69.44 431.548 70.85 431.548 72.23C431.548 72.83 431.608 73.49 431.728 74.21C431.848 74.93 432.298 75.29 433.078 75.29C434.038 75.29 434.758 74.93 435.238 74.21C435.718 73.43 436.078 73.04 436.318 73.04C436.438 73.04 436.498 73.13 436.498 73.31C436.498 73.79 436.198 74.27 435.598 74.75C435.058 75.23 434.458 75.65 433.798 76.01C433.138 76.31 432.598 76.46 432.178 76.46C430.918 76.46 430.078 75.95 429.658 74.93C429.298 73.85 429.118 72.83 429.118 71.87C429.118 70.85 429.238 69.8 429.478 68.72C429.778 67.64 430.048 66.62 430.288 65.66C429.868 66.08 429.238 66.74 428.398 67.64C427.618 68.48 426.748 69.35 425.788 70.25C424.888 71.15 423.988 71.93 423.088 72.59C422.248 73.19 421.498 73.49 420.838 73.49C420.658 73.49 420.388 73.37 420.028 73.13C419.728 72.83 419.578 72.56 419.578 72.32C419.518 71.6 419.758 70.55 420.298 69.17C420.898 67.79 421.498 66.44 422.098 65.12C422.758 63.74 423.178 62.72 423.358 62.06C423.418 61.88 423.538 61.49 423.718 60.89C423.898 60.23 423.988 59.63 423.988 59.09C423.988 58.37 423.748 58.01 423.268 58.01C422.488 58.01 421.648 58.49 420.748 59.45C419.908 60.41 419.068 61.61 418.228 63.05C417.448 64.49 416.698 66.02 415.978 67.64C415.318 69.26 414.718 70.73 414.178 72.05C413.698 73.37 413.368 74.36 413.188 75.02C413.188 75.08 413.158 75.14 413.098 75.2L413.188 75.83C413.008 76.25 412.888 76.64 412.828 77C412.768 77.3 412.468 77.57 411.928 77.81C411.868 77.81 411.808 77.81 411.748 77.81C411.748 77.87 411.688 77.9 411.568 77.9ZM449.737 77.54C449.017 77.54 448.357 77.24 447.757 76.64C447.157 75.98 446.677 75.23 446.317 74.39C446.017 73.49 445.867 72.74 445.867 72.14C445.867 71.9 445.897 71.69 445.957 71.51C446.017 71.27 446.197 71.15 446.497 71.15C446.857 71.15 447.067 71.33 447.127 71.69C447.367 72.23 447.577 72.86 447.757 73.58C447.997 74.24 448.117 74.6 448.117 74.66C448.117 75.02 448.297 75.38 448.657 75.74C449.017 76.04 449.377 76.19 449.737 76.19C450.517 76.19 451.297 75.59 452.077 74.39C452.857 73.13 453.577 71.63 454.237 69.89C454.897 68.15 455.467 66.5 455.947 64.94C456.427 63.38 456.757 62.27 456.937 61.61C456.997 61.31 457.057 61.01 457.117 60.71C457.177 60.41 457.207 60.11 457.207 59.81C457.207 59.15 456.937 58.82 456.397 58.82C455.917 58.82 455.347 59.03 454.687 59.45C454.087 59.87 453.607 60.23 453.247 60.53C451.327 62.03 449.647 63.86 448.207 66.02C446.767 68.18 445.507 70.37 444.427 72.59L443.257 75.2C443.317 75.32 443.347 75.5 443.347 75.74C443.347 76.46 443.017 76.82 442.357 76.82C441.817 76.82 441.517 76.67 441.457 76.37C441.337 76.25 441.277 76.16 441.277 76.1C440.917 75.26 440.647 73.94 440.467 72.14C440.347 70.28 440.287 68.33 440.287 66.29C440.287 64.07 440.347 61.91 440.467 59.81C440.647 57.65 440.857 55.97 441.097 54.77C440.077 54.29 439.327 53.48 438.847 52.34C438.367 51.14 438.067 49.91 437.947 48.65C437.887 47.33 437.887 46.28 437.947 45.5C437.947 45.38 437.977 45.29 438.037 45.23C438.157 44.75 438.397 44.66 438.757 44.96C438.937 45.02 439.027 45.23 439.027 45.59C438.967 45.83 438.937 46.1 438.937 46.4C438.937 46.7 438.937 47 438.937 47.3C438.937 48.44 439.087 49.64 439.387 50.9C439.747 52.1 440.407 52.97 441.367 53.51C442.087 49.01 443.377 44.81 445.237 40.91C447.157 37.01 449.347 33.56 451.807 30.56C454.327 27.56 456.877 25.22 459.457 23.54C462.037 21.86 464.347 21.02 466.387 21.02C467.287 21.02 468.007 21.14 468.547 21.38C470.047 21.98 471.127 22.88 471.787 24.08C472.447 25.22 472.777 26.57 472.777 28.13C472.777 30.77 471.967 33.74 470.347 37.04C468.787 40.34 466.807 43.4 464.407 46.22C462.967 47.9 461.317 49.55 459.457 51.17C457.657 52.73 455.737 54.02 453.697 55.04C451.717 56.06 449.677 56.57 447.577 56.57C446.137 56.57 444.667 56.24 443.167 55.58C443.047 56.06 442.897 56.99 442.717 58.37C442.597 59.75 442.477 61.31 442.357 63.05C442.237 64.73 442.177 66.41 442.177 68.09C442.177 69.05 442.207 69.95 442.267 70.79C442.327 71.57 442.417 72.29 442.537 72.95C443.857 70.67 445.357 68.3 447.037 65.84C448.777 63.32 450.697 61.25 452.797 59.63C453.457 59.15 454.267 58.61 455.227 58.01C456.187 57.41 457.087 57.11 457.927 57.11C458.647 57.11 459.127 57.41 459.367 58.01C459.667 58.55 459.817 59.15 459.817 59.81C459.817 60.77 459.517 62.24 458.917 64.22C458.317 66.14 457.507 68.12 456.487 70.16C455.527 72.2 454.447 73.94 453.247 75.38C452.107 76.82 450.937 77.54 449.737 77.54ZM443.257 54.32C444.517 54.92 445.897 55.22 447.397 55.22C449.377 55.22 451.327 54.74 453.247 53.78C455.167 52.76 456.967 51.5 458.647 50C460.387 48.44 461.947 46.85 463.327 45.23C465.667 42.35 467.587 39.32 469.087 36.14C470.647 32.9 471.427 30.11 471.427 27.77C471.427 26.21 471.007 24.95 470.167 23.99C469.387 22.97 468.037 22.46 466.117 22.46C464.137 22.46 462.127 23.15 460.087 24.53C458.047 25.85 456.067 27.65 454.147 29.93C452.287 32.15 450.577 34.67 449.017 37.49C447.517 40.25 446.257 43.1 445.237 46.04C444.217 48.92 443.557 51.68 443.257 54.32ZM466.01 77.99C464.87 78.11 463.94 77.87 463.22 77.27C462.56 76.67 462.23 75.74 462.23 74.48C462.23 73.16 462.53 71.63 463.13 69.89C463.73 68.15 464.45 66.47 465.29 64.85C466.13 63.23 466.88 61.91 467.54 60.89C467.48 60.83 467.36 60.65 467.18 60.35C467.06 59.99 467 59.69 467 59.45C467 59.21 467.09 59.09 467.27 59.09C467.45 59.09 467.78 59.24 468.26 59.54C468.68 58.88 469.19 58.1 469.79 57.2C470.45 56.3 471.14 55.52 471.86 54.86C472.64 54.14 473.45 53.78 474.29 53.78C475.19 53.78 475.76 54.23 476 55.13C476.3 56.03 476.45 56.78 476.45 57.38C476.45 58.58 476 59.57 475.1 60.35C474.2 61.13 473.06 61.58 471.68 61.7C471.14 61.7 470.57 61.64 469.97 61.52C469.43 61.34 469.1 61.19 468.98 61.07C468.56 61.91 467.96 63.14 467.18 64.76C466.46 66.38 465.8 68.03 465.2 69.71C464.6 71.39 464.3 72.8 464.3 73.94C464.3 74.6 464.48 75.17 464.84 75.65C465.26 76.13 465.86 76.34 466.64 76.28C467.84 76.16 469.13 75.65 470.51 74.75C471.95 73.79 473.36 72.65 474.74 71.33C476.12 69.95 477.26 68.6 478.16 67.28C478.28 67.1 478.4 67.01 478.52 67.01C478.64 67.01 478.73 67.1 478.79 67.28C478.85 67.46 478.85 67.61 478.79 67.73C477.95 69.05 476.78 70.49 475.28 72.05C473.84 73.61 472.28 74.96 470.6 76.1C468.98 77.24 467.45 77.87 466.01 77.99ZM471.41 60.62C472.25 60.5 472.85 60.14 473.21 59.54C473.57 58.94 473.69 58.22 473.57 57.38C473.57 57.14 473.51 56.9 473.39 56.66C473.33 56.36 473.15 56.21 472.85 56.21C472.31 56.27 471.68 56.84 470.96 57.92C470.3 58.94 469.82 59.69 469.52 60.17C469.64 60.23 469.94 60.32 470.42 60.44C470.96 60.56 471.29 60.62 471.41 60.62ZM485.227 80.69C486.247 80.69 487.237 80.36 488.197 79.7C489.157 79.1 489.937 78.5 490.537 77.9C490.717 77.66 490.867 77.54 490.987 77.54C491.107 77.54 491.167 77.63 491.167 77.81C491.167 78.11 491.047 78.38 490.807 78.62C490.027 79.58 489.037 80.36 487.837 80.96C486.697 81.62 485.557 81.95 484.417 81.95C483.397 81.95 482.527 81.59 481.807 80.87C481.147 80.21 480.817 79.13 480.817 77.63C480.817 75.71 481.267 73.82 482.167 71.96C483.127 70.1 484.267 68.27 485.587 66.47C486.907 64.67 488.137 62.96 489.277 61.34C489.757 60.56 489.997 59.93 489.997 59.45C489.997 58.61 489.457 57.92 488.377 57.38C487.897 57.14 487.327 56.78 486.667 56.3C486.007 55.76 485.587 55.25 485.407 54.77C484.627 56.93 483.577 59.33 482.257 61.97C480.997 64.61 479.317 67.22 477.217 69.8C476.977 70.16 476.737 70.34 476.497 70.34C476.377 70.34 476.317 70.25 476.317 70.07C476.317 69.83 476.437 69.56 476.677 69.26C477.337 68.48 478.117 67.37 479.017 65.93C479.917 64.43 480.787 62.81 481.627 61.07C482.527 59.27 483.247 57.53 483.787 55.85C484.387 54.17 484.687 52.7 484.687 51.44C484.807 50.78 485.167 50.45 485.767 50.45C486.247 50.45 486.487 50.72 486.487 51.26C486.427 51.44 486.397 51.71 486.397 52.07C486.397 52.61 486.517 53.15 486.757 53.69C486.997 54.23 487.357 54.65 487.837 54.95C488.317 55.31 489.007 55.64 489.907 55.94C490.867 56.18 491.707 56.48 492.427 56.84C493.207 57.2 493.597 57.77 493.597 58.55C493.597 58.91 493.327 59.54 492.787 60.44C492.247 61.28 491.587 62.21 490.807 63.23C490.087 64.25 489.367 65.21 488.647 66.11C487.987 66.95 487.507 67.55 487.207 67.91C486.067 69.41 484.957 71 483.877 72.68C482.857 74.3 482.347 75.98 482.347 77.72C482.347 78.74 482.617 79.49 483.157 79.97C483.757 80.45 484.447 80.69 485.227 80.69Z" fill="black"/>
</svg>
